Coordinates
version=1
nRows=11
nColumns=40
inDegrees=yes

Units are S.I. units (second, meters, Newtons, ...)
Angles are in degrees.

endheader
time	pelvis_tilt	pelvis_list	pelvis_rotation	pelvis_tx	pelvis_ty	pelvis_tz	hip_flexion_r	hip_adduction_r	hip_rotation_r	knee_angle_r	knee_angle_r_beta	ankle_angle_r	subtalar_angle_r	mtp_angle_r	hip_flexion_l	hip_adduction_l	hip_rotation_l	knee_angle_l	knee_angle_l_beta	ankle_angle_l	subtalar_angle_l	mtp_angle_l	lumbar_extension	lumbar_bending	lumbar_rotation	arm_flex_r	arm_add_r	arm_rot_r	elbow_flex_r	pro_sup_r	wrist_flex_r	wrist_dev_r	arm_flex_l	arm_add_l	arm_rot_l	elbow_flex_l	pro_sup_l	wrist_flex_l	wrist_dev_l
      6.23000000	     -4.23880182	     -3.20772613	     -5.78068543	      1.05156477	      0.92873583	      0.42789834	     25.12134389	     -3.17130833	    -13.43953050	      9.02965693	      9.02965693	      0.44312900	     10.78422668	      9.27271298	      5.06989534	     -4.18627817	    -15.31306835	     15.99877986	     15.99877986	     15.79295557	     -7.15548244	     -5.64972196	    -11.22313269	      2.23175509	     -0.59641253	     -9.62959244	    -13.64855408	    -15.15034296	     29.28210895	     47.22993175	      0.00000000	      0.00000000	     18.61433616	    -18.66911025	      7.77416830	     52.86842333	     45.95998839	      0.00000000	      0.00000000
      6.24371429	     -4.20263249	     -3.10101093	     -5.78018330	      1.05255988	      0.92814852	      0.42997691	     24.97606502	     -3.18115009	    -13.24257289	     10.18424970	     10.18424970	      0.33271879	     10.02318166	      8.16038129	      4.33978646	     -4.12073646	    -15.47475152	     15.56757754	     15.56757754	     16.01675707	     -6.78109153	     -5.78526608	    -11.11672767	      2.10429699	     -0.77323959	     -9.63540428	    -13.43567706	    -15.10514174	     29.51050500	     47.20227743	      0.00000000	      0.00000000	     18.62240762	    -18.34681552	      7.53285346	     52.30677745	     45.98439802	      0.00000000	      0.00000000
      6.25742857	     -4.13169846	     -3.07806252	     -5.68361592	      1.05385634	      0.92741064	      0.43214863	     24.54831988	     -3.05595854	    -12.75726350	     11.06082421	     11.06082421	     -0.77407877	      8.70638426	      4.17796860	      3.63527714	     -4.19692232	    -15.65614968	     15.30837935	     15.30837935	     16.29901133	     -6.25013167	     -6.11383646	    -10.98232139	      2.12493058	     -0.73741363	    -10.01420017	    -13.29938381	    -14.70953866	     30.41803206	     47.06377297	      0.00000000	      0.00000000	     18.99542718	    -17.44392944	      6.38920375	     50.70075711	     46.10861057	      0.00000000	      0.00000000
      6.27114286	     -4.05491743	     -3.19262619	     -5.48324503	      1.05533953	      0.92681504	      0.43424902	     24.07310697	     -2.91007772	    -12.73435885	     12.14182894	     12.14182894	     -0.53488881	      8.20935465	      3.82340440	      2.94811243	     -4.39391372	    -15.51620328	     15.09321034	     15.09321034	     16.59034383	     -6.07974189	     -6.14964114	    -10.89030111	      2.32482180	     -0.93651307	     -9.85990330	    -13.06524104	    -14.64846070	     30.54789810	     47.05067774	      0.00000000	      0.00000000	     18.70832120	    -17.13202345	      6.47896258	     50.54478326	     46.09816666	      0.00000000	      0.00000000
      6.28485714	     -3.96625550	     -3.01638437	     -5.35048838	      1.05696856	      0.92598732	      0.43651622	     23.94077415	     -3.04010597	    -12.06997358	     13.80201716	     13.80201716	     -0.06389928	      7.05755144	      3.02417855	      2.14980447	     -4.27395072	    -15.63471032	     14.68679780	     14.68679780	     16.90456915	     -5.55329480	     -6.11457020	    -10.73946588	      2.17681334	     -1.25619653	     -9.58671037	    -12.96732179	    -14.50203930	     30.96491403	     47.01402995	      0.00000000	      0.00000000	     18.50780198	    -17.04542577	      6.38489123	     50.03510726	     46.10382630	      0.00000000	      0.00000000
      6.29857143	     -3.92081484	     -3.05723921	     -5.14055261	      1.05873744	      0.92519813	      0.43896789	     23.58450248	     -2.85014951	    -11.33515350	     14.90011939	     14.90011939	      0.18021266	      5.70884112	      1.94758252	      1.53366304	     -4.48294811	    -15.74518051	     14.60214617	     14.60214617	     17.41725719	     -4.89171098	     -5.84483584	    -10.53932719	      2.28285504	     -1.43063426	     -9.52016701	    -12.91641871	    -13.98294025	     31.78579575	     46.91791008	      0.00000000	      0.00000000	     18.36497160	    -16.61820628	      5.99280040	     49.11185529	     46.13881429	      0.00000000	      0.00000000
      6.31228571	     -3.77872236	     -3.17605900	     -4.89970554	      1.06064243	      0.92459753	      0.44149438	     23.14591531	     -2.66480396	    -11.04526231	     15.97897310	     15.97897310	      0.78362240	      5.17213277	      1.38817412	      0.83398749	     -4.75643416	    -15.63074592	     14.55331478	     14.55331478	     17.76690794	     -4.65011972	     -5.72671282	    -10.48409454	      2.50598341	     -1.54396048	     -9.21414127	    -12.90748740	    -13.81239756	     32.18156895	     46.88496437	      0.00000000	      0.00000000	     18.12286666	    -16.36119587	      5.94027861	     48.71919934	     46.13983644	      0.00000000	      0.00000000
      6.32600000	     -3.72466057	     -3.20213537	     -4.69066655	      1.06255710	      0.92394867	      0.44416701	     22.91533508	     -2.50839653	    -10.45962669	     17.05923042	     17.05923042	      1.43603786	      4.19587291	      0.73706903	      0.27002592	     -4.97876639	    -15.64744985	     14.58450422	     14.58450422	     18.20562037	     -4.21049416	     -5.31345391	    -10.30502373	      2.60877102	     -1.72647302	     -8.86869559	    -12.85601960	    -13.44342346	     32.96169773	     46.81783976	      0.00000000	      0.00000000	     17.78934405	    -16.06078126	      5.72851093	     47.94573087	     46.15252630	      0.00000000	      0.00000000
      6.33971429	     -3.62400657	     -3.42010912	     -4.48782991	      1.06452014	      0.92357134	      0.44711176	     22.51849170	     -2.11753226	    -10.01532564	     17.79033465	     17.79033465	      1.85468549	      3.31276226	     -0.39529450	     -0.11252218	     -5.56019109	    -15.92745572	     15.21733662	     15.21733662	     19.57476097	     -3.11987231	     -3.08398189	    -10.21371040	      2.95290439	     -1.55098849	     -9.28949839	    -13.31825503	    -11.22451728	     35.30566918	     46.50737598	      0.00000000	      0.00000000	     17.86271741	    -15.22366711	      4.42882620	     46.43443544	     46.27282419	      0.00000000	      0.00000000
      6.35342857	     -3.54091757	     -3.54280211	     -4.31822760	      1.06639678	      0.92330390	      0.45015690	     22.29430664	     -1.85334949	     -9.65800687	     18.67282408	     18.67282408	      2.63338063	      2.63318013	     -0.77078333	     -0.54864372	     -5.93654931	    -15.75909483	     15.53290666	     15.53290666	     19.76392077	     -3.18350407	     -2.92663658	    -10.10348850	      3.15358576	     -1.63787058	     -8.64632436	    -13.36512195	    -11.06178919	     35.82768227	     46.47330734	      0.00000000	      0.00000000	     17.36462066	    -15.09631337	      4.42037557	     46.04501423	     46.26492651	      0.00000000	      0.00000000
      6.36714286	     -3.42930653	     -3.70420587	     -4.17582983	      1.06826524	      0.92327271	      0.45340813	     22.02648958	     -1.53111711	     -9.39001983	     19.44024782	     19.44024782	      3.39199729	      1.99749072	     -1.10036917	     -0.88854988	     -6.41191303	    -15.59977738	     16.10063807	     16.10063807	     19.91440641	     -3.33945609	     -2.69600372	    -10.04485888	      3.39126632	     -1.61104064	     -7.99885142	    -13.47232885	    -10.90897767	     36.47609156	     46.43671492	      0.00000000	      0.00000000	     16.88454557	    -14.94225921	      4.34255028	     45.62936410	     46.26396909	      0.00000000	      0.00000000
